<?xml version="1.0" encoding="UTF-8" standalone="no"?><svg xmlns="http://www.w3.org/2000/svg" xmlns:xlink="http://www.w3.org/1999/xlink" fill="#b2ccd1" height="238.7" preserveAspectRatio="xMidYMid meet" version="1" viewBox="0.0 0.0 186.7 238.7" width="186.7" zoomAndPan="magnify"><g id="change1_1"><path d="M93.355,0A93.355,93.355,0,0,0,0,93.355c0,57.661,50.964,105.336,77.581,137.857a20.36,20.36,0,0,0,31.548,0c26.618-32.521,77.582-82.942,77.582-137.857A93.356,93.356,0,0,0,93.355,0ZM128.2,139.569c-56.657,35.179-116.232-24.4-81.053-81.053a35.453,35.453,0,0,1,11.369-11.37C115.17,11.958,174.752,71.541,139.565,128.2A35.453,35.453,0,0,1,128.2,139.569Z"/></g></svg>